<svg width="24" height="18" viewBox="0 0 24 18" fill="none" xmlns="http://www.w3.org/2000/svg">
<path d="M1.27865 0.00608529C0.880962 0.0697157 0.524838 0.288722 0.288622 0.614925C0.0524057 0.941128 -0.0445518 1.34781 0.0190786 1.7455C0.0827091 2.14319 0.301715 2.49931 0.627918 2.73553C0.954121 2.97174 1.3608 3.0687 1.75849 3.00507H6.25697L6.52688 3.75482L7.75646 7.50355L8.98605 11.2523C9.10601 11.6421 9.61583 12.002 10.0057 12.002H20.5022C20.922 12.002 21.4018 11.6421 21.5218 11.2523L23.951 3.75482C24.0709 3.36495 23.891 3.00507 23.4711 3.00507H10.1557L9.01604 0.845801C8.89466 0.597963 8.70724 0.388428 8.47442 0.240269C8.24159 0.0921098 7.9724 0.0110741 7.69648 0.00608529L1.69851 0.00608529C1.60872 -0.00202843 1.51839 -0.00202843 1.4286 0.00608529C1.36868 0.00248327 1.30859 0.00248327 1.24866 0.00608529L1.27865 0.00608529ZM10.7554 15.001C9.91573 15.001 9.25596 15.6608 9.25596 16.5005C9.25596 17.3402 9.91573 18 10.7554 18C11.5952 18 12.2549 17.3402 12.2549 16.5005C12.2549 15.6608 11.5952 15.001 10.7554 15.001ZM19.7524 15.001C18.9127 15.001 18.2529 15.6608 18.2529 16.5005C18.2529 17.3402 18.9127 18 19.7524 18C20.5921 18 21.2519 17.3402 21.2519 16.5005C21.2519 15.6608 20.5921 15.001 19.7524 15.001Z" fill="white"/>
</svg>
