<svg width="113" height="32" viewBox="0 0 113 32" fill="none" xmlns="http://www.w3.org/2000/svg">
<path d="M3.376 20.632H11.184V23H0.464V0.695999H3.376V20.632ZM13.1885 14.168C13.1885 12.376 13.5512 10.808 14.2765 9.464C15.0018 8.09867 15.9938 7.04267 17.2525 6.296C18.5325 5.54933 19.9512 5.176 21.5085 5.176C23.0445 5.176 24.3778 5.50667 25.5085 6.168C26.6392 6.82933 27.4818 7.66133 28.0365 8.664V5.464H30.9805V23H28.0365V19.736C27.4605 20.76 26.5965 21.6133 25.4445 22.296C24.3138 22.9573 22.9912 23.288 21.4765 23.288C19.9192 23.288 18.5112 22.904 17.2525 22.136C15.9938 21.368 15.0018 20.2907 14.2765 18.904C13.5512 17.5173 13.1885 15.9387 13.1885 14.168ZM28.0365 14.2C28.0365 12.8773 27.7698 11.7253 27.2365 10.744C26.7032 9.76267 25.9778 9.016 25.0605 8.504C24.1645 7.97067 23.1725 7.704 22.0845 7.704C20.9965 7.704 20.0045 7.96 19.1085 8.472C18.2125 8.984 17.4978 9.73067 16.9645 10.712C16.4312 11.6933 16.1645 12.8453 16.1645 14.168C16.1645 15.512 16.4312 16.6853 16.9645 17.688C17.4978 18.6693 18.2125 19.4267 19.1085 19.96C20.0045 20.472 20.9965 20.728 22.0845 20.728C23.1725 20.728 24.1645 20.472 25.0605 19.96C25.9778 19.4267 26.7032 18.6693 27.2365 17.688C27.7698 16.6853 28.0365 15.5227 28.0365 14.2ZM43.1335 5.176C44.6482 5.176 45.9708 5.50667 47.1015 6.168C48.2535 6.82933 49.1068 7.66133 49.6615 8.664V5.464H52.6055V23.384C52.6055 24.984 52.2642 26.4027 51.5815 27.64C50.8988 28.8987 49.9175 29.88 48.6375 30.584C47.3788 31.288 45.9068 31.64 44.2215 31.64C41.9175 31.64 39.9975 31.096 38.4615 30.008C36.9255 28.92 36.0188 27.4373 35.7415 25.56H38.6215C38.9415 26.6267 39.6028 27.48 40.6055 28.12C41.6082 28.7813 42.8135 29.112 44.2215 29.112C45.8215 29.112 47.1228 28.6107 48.1255 27.608C49.1495 26.6053 49.6615 25.1973 49.6615 23.384V19.704C49.0855 20.728 48.2322 21.5813 47.1015 22.264C45.9708 22.9467 44.6482 23.288 43.1335 23.288C41.5762 23.288 40.1575 22.904 38.8775 22.136C37.6188 21.368 36.6268 20.2907 35.9015 18.904C35.1762 17.5173 34.8135 15.9387 34.8135 14.168C34.8135 12.376 35.1762 10.808 35.9015 9.464C36.6268 8.09867 37.6188 7.04267 38.8775 6.296C40.1575 5.54933 41.5762 5.176 43.1335 5.176ZM49.6615 14.2C49.6615 12.8773 49.3948 11.7253 48.8615 10.744C48.3282 9.76267 47.6028 9.016 46.6855 8.504C45.7895 7.97067 44.7975 7.704 43.7095 7.704C42.6215 7.704 41.6295 7.96 40.7335 8.472C39.8375 8.984 39.1228 9.73067 38.5895 10.712C38.0562 11.6933 37.7895 12.8453 37.7895 14.168C37.7895 15.512 38.0562 16.6853 38.5895 17.688C39.1228 18.6693 39.8375 19.4267 40.7335 19.96C41.6295 20.472 42.6215 20.728 43.7095 20.728C44.7975 20.728 45.7895 20.472 46.6855 19.96C47.6028 19.4267 48.3282 18.6693 48.8615 17.688C49.3948 16.6853 49.6615 15.5227 49.6615 14.2ZM73.0785 5.464V23H70.1665V20.408C69.6118 21.304 68.8332 22.008 67.8305 22.52C66.8492 23.0107 65.7612 23.256 64.5665 23.256C63.2012 23.256 61.9745 22.9787 60.8865 22.424C59.7985 21.848 58.9345 20.9947 58.2945 19.864C57.6758 18.7333 57.3665 17.3573 57.3665 15.736V5.464H60.2465V15.352C60.2465 17.08 60.6838 18.4133 61.5585 19.352C62.4332 20.2693 63.6278 20.728 65.1425 20.728C66.6998 20.728 67.9265 20.248 68.8225 19.288C69.7185 18.328 70.1665 16.9307 70.1665 15.096V5.464H73.0785ZM84.2033 23.288C82.8593 23.288 81.6539 23.064 80.5873 22.616C79.5206 22.1467 78.6779 21.5067 78.0593 20.696C77.4406 19.864 77.0993 18.9147 77.0353 17.848H80.0433C80.1286 18.7227 80.5339 19.4373 81.2593 19.992C82.0059 20.5467 82.9766 20.824 84.1713 20.824C85.2806 20.824 86.1553 20.5787 86.7953 20.088C87.4353 19.5973 87.7553 18.9787 87.7553 18.232C87.7553 17.464 87.4139 16.8987 86.7313 16.536C86.0486 16.152 84.9926 15.7787 83.5633 15.416C82.2619 15.0747 81.1953 14.7333 80.3633 14.392C79.5526 14.0293 78.8486 13.5067 78.2513 12.824C77.6753 12.12 77.3873 11.2027 77.3873 10.072C77.3873 9.176 77.6539 8.35467 78.1873 7.608C78.7206 6.86133 79.4779 6.27467 80.4593 5.848C81.4406 5.4 82.5606 5.176 83.8193 5.176C85.7606 5.176 87.3286 5.66667 88.5233 6.648C89.7179 7.62933 90.3579 8.97333 90.4433 10.68H87.5313C87.4673 9.76267 87.0939 9.02667 86.4113 8.472C85.7499 7.91733 84.8539 7.64 83.7233 7.64C82.6779 7.64 81.8459 7.864 81.2273 8.312C80.6086 8.76 80.2993 9.34667 80.2993 10.072C80.2993 10.648 80.4806 11.128 80.8433 11.512C81.2273 11.8747 81.6966 12.1733 82.2513 12.408C82.8273 12.6213 83.6166 12.8667 84.6193 13.144C85.8779 13.4853 86.9019 13.8267 87.6913 14.168C88.4806 14.488 89.1526 14.9787 89.7073 15.64C90.2833 16.3013 90.5819 17.1653 90.6033 18.232C90.6033 19.192 90.3366 20.056 89.8033 20.824C89.2699 21.592 88.5126 22.2 87.5313 22.648C86.5713 23.0747 85.4619 23.288 84.2033 23.288Z" fill="white"/>
<path d="M112.634 24.216V26.904H95.61V24.216H112.634Z" fill="#FE5050"/>
</svg>
